<svg width="24" height="25" viewBox="0 0 24 25" fill="none" xmlns="http://www.w3.org/2000/svg">
<g filter="url(#filter0_d)">
<path d="M18.9891 15.0205L14.424 10.4555C15.1324 9.53965 15.5156 8.41992 15.5156 7.24219C15.5156 5.83242 14.9654 4.51055 13.9705 3.51387C12.9756 2.51719 11.6502 1.96875 10.2422 1.96875C8.83418 1.96875 7.50879 2.51895 6.51387 3.51387C5.51719 4.50879 4.96875 5.83242 4.96875 7.24219C4.96875 8.6502 5.51895 9.97559 6.51387 10.9705C7.50879 11.9672 8.83242 12.5156 10.2422 12.5156C11.4199 12.5156 12.5379 12.1324 13.4537 11.4258L18.0188 15.9891C18.0321 16.0025 18.048 16.0131 18.0655 16.0203C18.083 16.0276 18.1018 16.0313 18.1207 16.0313C18.1396 16.0313 18.1584 16.0276 18.1759 16.0203C18.1934 16.0131 18.2093 16.0025 18.2227 15.9891L18.9891 15.2244C19.0025 15.211 19.0131 15.1951 19.0203 15.1776C19.0276 15.1601 19.0313 15.1414 19.0313 15.1225C19.0313 15.1035 19.0276 15.0848 19.0203 15.0673C19.0131 15.0498 19.0025 15.0339 18.9891 15.0205V15.0205ZM13.0266 10.0266C12.2813 10.7701 11.2934 11.1797 10.2422 11.1797C9.19102 11.1797 8.20313 10.7701 7.45781 10.0266C6.71426 9.28125 6.30469 8.29336 6.30469 7.24219C6.30469 6.19102 6.71426 5.20137 7.45781 4.45781C8.20313 3.71426 9.19102 3.30469 10.2422 3.30469C11.2934 3.30469 12.283 3.7125 13.0266 4.45781C13.7701 5.20313 14.1797 6.19102 14.1797 7.24219C14.1797 8.29336 13.7701 9.28301 13.0266 10.0266Z" fill="#8C8C8C"/>
</g>
<defs>
<filter id="filter0_d" x="-1" y="0" width="26" height="26" filterUnits="userSpaceOnUse" color-interpolation-filters="sRGB">
<feFlood flood-opacity="0" result="BackgroundImageFix"/>
<feColorMatrix in="SourceAlpha" type="matrix" values="0 0 0 0 0 0 0 0 0 0 0 0 0 0 0 0 0 0 127 0"/>
<feOffset dy="4"/>
<feGaussianBlur stdDeviation="2"/>
<feColorMatrix type="matrix" values="0 0 0 0 0 0 0 0 0 0 0 0 0 0 0 0 0 0 0.25 0"/>
<feBlend mode="normal" in2="BackgroundImageFix" result="effect1_dropShadow"/>
<feBlend mode="normal" in="SourceGraphic" in2="effect1_dropShadow" result="shape"/>
</filter>
</defs>
</svg>
